<svg width="117" height="48" viewBox="0 0 117 48" fill="none" xmlns="http://www.w3.org/2000/svg">
<path d="M103.483 38.701C100.717 41.5976 99.5707 43.442 102.1 42.7229C104.592 42.0004 110.874 39.3302 114.578 36.8598C118.289 34.3894 117.282 32.6548 113.88 32.9478C110.439 33.2474 106.314 35.8044 103.487 38.701M114.581 11.1568C112.949 10.0215 110.371 8.69307 107.865 7.55774C105.356 6.42574 103.316 5.6167 102.145 5.30374C100.916 4.97746 100.468 5.14725 100.81 5.92633C101.149 6.70208 100.368 7.01838 99.064 6.80197C97.6948 6.57557 95.7709 5.79316 93.7547 4.56794C91.7178 3.34605 89.9446 2.5703 88.7705 2.36055C87.5415 2.14413 86.8295 2.49039 86.696 3.47922C86.5625 4.46472 85.5561 4.93751 84.245 4.80766C82.8791 4.67115 81.1813 3.91871 79.6374 2.66352C78.0798 1.41167 76.5668 0.699174 75.3926 0.592633C75.3858 0.592633 75.3789 0.592633 75.3721 0.592633C75.3652 0.592633 75.3584 0.592633 75.3515 0.592633C74.126 0.482763 73.147 0.985498 72.5377 2.1175C71.9352 3.24949 70.696 3.85212 69.3849 3.80551C68.0225 3.75889 66.5539 3.06637 65.479 1.84448C64.3939 0.622591 63.1547 0 61.9737 0C60.7482 0 59.5055 0.619262 58.4238 1.84448C57.3489 3.06637 55.8838 3.75889 54.5693 3.80217C53.2103 3.84878 51.9677 3.2495 51.3652 2.11417C50.7559 0.978846 49.7768 0.479434 48.5958 0.582646C48.589 0.582646 48.5787 0.582639 48.5684 0.585968C48.5616 0.585968 48.5513 0.585968 48.5445 0.585968C47.3224 0.692509 45.8127 1.40833 44.2518 2.66019C42.6976 3.91537 41.342 5.57009 40.6814 7.06832C39.983 8.62315 39.9488 10.1414 40.7533 11.2434C41.544 12.3488 41.7665 13.9069 41.4893 15.4251C41.1949 16.9999 40.3836 18.5914 39.0211 19.77C37.6553 20.9486 36.9193 22.5068 36.9227 24.005C36.9193 25.5598 37.6621 27.118 39.028 28.2966C40.3904 29.4752 41.2051 31.0667 41.4893 32.5849C41.7802 34.1597 41.5611 35.7212 40.7704 36.8232C39.9762 37.9286 38.713 38.408 37.2582 38.3081C35.7554 38.2049 33.9753 37.5257 32.3219 36.3304C30.6719 35.1352 29.4464 33.6136 28.9775 32.1221C28.5153 30.6871 28.796 29.2222 29.8812 28.1301C30.9561 27.0414 31.4524 25.5232 31.4559 24.0017C31.4559 22.5367 30.9492 21.0185 29.8709 19.9298C28.7858 18.8378 28.4948 17.3728 28.974 15.8812C29.4225 14.4463 30.648 12.9247 32.2945 11.7295C33.9411 10.5376 35.194 8.97274 36.0361 7.45121C36.8405 5.9896 37.3129 4.4614 37.1931 3.4759C37.0596 2.49039 36.3476 2.14081 35.1666 2.35056C33.9445 2.56697 32.1713 3.34272 30.1379 4.56461C28.1182 5.78983 26.1944 6.56891 24.8799 6.78865C23.5243 7.01505 22.7438 6.69875 23.0827 5.923C23.425 5.14392 22.98 4.97413 21.7922 5.28709C20.5735 5.61005 18.5333 6.41909 16.0241 7.55442C13.5183 8.68974 10.944 10.0215 9.30776 11.1535C7.58589 12.3321 6.69586 13.4175 6.93891 14.1699C7.16142 14.9191 6.71982 16.1043 5.95302 17.2929C5.14515 18.5281 3.98468 19.8033 2.44082 20.7422C0.883264 21.6844 -0.010182 22.8697 8.75698e-05 24.005C-0.010182 25.1836 0.893537 26.3689 2.45452 27.3111C4.0018 28.2533 5.17253 29.5285 5.9496 30.7171C6.74378 31.9523 7.19907 33.1342 6.97998 33.8833C6.74378 34.6358 7.64409 35.7178 9.30434 36.8532C11.0057 38.0318 13.5183 39.3169 16.0207 40.4522C18.5299 41.5842 20.5667 42.3933 21.7853 42.7162C22.9732 43.0292 23.4182 42.8627 23.0759 42.0803C22.7267 41.3012 21.6895 40.0327 20.3476 38.6843C19.0433 37.3859 17.3523 35.9609 15.425 34.8588C13.4909 33.7535 11.9265 32.4018 11.2042 31.1C10.4956 29.8448 10.5983 28.5796 11.591 27.6374C12.5701 26.6951 12.9877 25.3501 12.9911 24.0017C12.9843 22.7032 12.5598 21.3548 11.5773 20.4159C10.5846 19.4737 10.4682 18.2052 11.2042 16.9034C11.8957 15.6482 13.4498 14.2998 15.3839 13.1911C17.3215 12.0891 19.2693 11.3999 20.7721 11.2301C22.2303 11.0669 23.3258 11.4199 23.8393 12.3787C24.3493 13.3343 24.2363 14.7459 23.716 16.1376C23.1649 17.5826 22.179 19.0542 20.7276 20.1429C19.2658 21.2349 18.4511 22.6433 18.458 23.9983C18.4511 25.4033 19.2761 26.815 20.7378 27.907C22.1927 28.9958 23.1854 30.4707 23.716 31.8591C24.2603 33.304 24.3767 34.7157 23.8735 35.6712C23.3531 36.6301 23.8256 37.9685 24.9894 39.3236C26.1841 40.7286 28.1045 42.2102 30.1345 43.4354C32.1679 44.6573 33.9411 45.433 35.1632 45.6494C36.3476 45.8592 37.0596 45.5096 37.1931 44.5241C37.3266 43.5386 38.3673 43.1224 39.7263 43.2589C41.0374 43.3921 42.7045 44.0846 44.2518 45.3398C45.8127 46.5917 47.319 47.3042 48.5445 47.414C48.5513 47.414 48.5616 47.414 48.5684 47.414C48.5787 47.414 48.5855 47.4174 48.5958 47.4174C49.7768 47.5206 50.7559 47.0212 51.3652 45.8858C51.9711 44.7505 53.2206 44.2111 54.5796 44.2578C55.8907 44.301 57.3455 44.9336 58.4238 46.1555C59.5055 47.3774 60.7516 48 61.9737 48C63.1547 48 64.3973 47.3807 65.479 46.1555C66.5539 44.9336 68.0122 44.301 69.3746 44.2544C70.6823 44.2111 71.9318 44.7505 72.5377 45.8825C73.147 47.0178 74.126 47.5172 75.3515 47.4074C76.5291 47.3042 78.0387 46.5917 79.5963 45.3398C81.147 44.0846 82.4752 42.4865 83.1633 40.9317C83.8342 39.4335 83.8719 37.9186 83.0708 36.8132C82.2801 35.7078 82.061 34.1497 82.352 32.5715C82.6327 31.0533 83.4508 29.4619 84.8133 28.2833C86.1791 27.1047 86.9219 25.5465 86.9151 23.9917C86.9219 22.4934 86.1825 20.9353 84.8167 19.7567C83.4508 18.5781 81.6982 17.8989 80.0995 17.8722C78.4358 17.8423 76.8475 18.4682 75.6733 19.6468C74.4957 20.8254 72.8149 21.418 71.1889 21.4114C69.4979 21.4047 67.7965 20.8021 66.5299 19.5935C65.2599 18.385 63.586 17.7158 61.9874 17.7158C60.3237 17.7158 58.6532 18.385 57.3832 19.5935C56.1132 20.8021 55.4525 22.4269 55.4559 23.9917C55.4559 25.6131 56.1132 27.2378 57.3832 28.4464C58.6498 29.655 60.3237 30.2643 61.984 30.2643C63.5826 30.2643 65.2531 29.655 66.5231 28.4464C67.7931 27.2378 69.491 26.6319 71.1821 26.6286C72.8047 26.6219 74.4889 27.2145 75.6665 28.3931C76.844 29.5718 77.3028 31.1599 77.0905 32.6981C76.8749 34.2962 75.9848 35.9109 74.6224 37.1362C73.2565 38.358 71.6511 39.004 70.1996 39.0373C68.6934 39.0705 67.2557 38.4946 66.1774 37.2993C65.0991 36.1074 63.5141 35.4515 61.984 35.4515C60.3922 35.4515 58.8072 36.1074 57.7323 37.2993C56.6506 38.4946 55.2163 39.0705 53.7648 39.0373C52.2586 39.004 50.6532 38.358 49.2873 37.1362C47.9249 35.9143 47.0348 34.2962 46.8192 32.6981C46.6069 31.1566 47.0691 29.5684 48.2432 28.3898C49.414 27.2112 49.9959 25.5998 49.9959 23.9883C49.9959 22.4368 49.4105 20.8254 48.2398 19.6435C47.0622 18.4649 46.5967 16.8767 46.8192 15.2786C47.0246 13.7404 47.9146 12.1257 49.277 10.9005C50.6429 9.67857 52.2518 9.03267 53.758 8.99938C55.2129 8.96608 56.6506 9.54207 57.7323 10.7373C58.8106 11.9293 60.399 12.5252 61.9874 12.5252C63.5175 12.5252 65.1059 11.9293 66.1842 10.7373C67.2659 9.5454 68.7037 8.96608 70.2133 8.99938C71.6647 9.03267 73.2702 9.67524 74.6395 10.8971C75.9985 12.119 77.6999 12.7549 79.2916 12.8049C79.2985 12.8049 79.3088 12.8049 79.3156 12.8049C79.3259 12.8049 79.3327 12.8049 79.343 12.8049C80.8731 12.8548 82.3451 12.3254 83.1427 11.2234C83.9403 10.1181 85.2069 9.63529 86.7166 9.7385C88.168 9.83506 89.9446 10.5176 91.598 11.7095C93.248 12.9048 94.4667 14.4263 94.9185 15.8613C95.3978 17.3528 95.1068 18.8178 94.0217 19.9098C92.9433 20.9985 92.4401 22.5168 92.4367 23.9817C92.4401 25.5032 92.9399 27.0181 94.0148 28.1068C95.0965 29.1955 95.3841 30.6638 94.9185 32.0988C94.4495 33.5903 93.2206 35.1119 91.5741 36.3071C89.9275 37.4991 88.6678 39.0639 87.8565 40.5288C87.0212 42.047 86.5762 43.5186 86.6994 44.5041C86.8329 45.493 87.545 45.8392 88.7739 45.6228C89.948 45.4164 91.7213 44.6406 93.7581 43.4187C95.7846 42.1935 97.705 40.7119 98.8997 39.3069C100.064 37.9519 100.536 36.6134 100.019 35.6546C99.5159 34.699 99.6323 33.2874 100.177 31.8424C100.707 30.4507 101.703 28.9791 103.155 27.8904C104.62 26.7984 105.441 25.39 105.435 23.9817C105.441 22.6266 104.627 21.215 103.165 20.1262C101.714 19.0375 100.724 17.5659 100.177 16.121C99.6562 14.7293 99.5433 13.3176 100.053 12.3621C100.567 11.4032 101.659 11.047 103.175 11.2201C104.623 11.3832 106.571 12.0724 108.505 13.1744C110.426 14.2798 112.353 14.8991 113.948 15.0556C115.475 15.2021 116.724 14.8991 116.961 14.15C117.204 13.3975 116.314 12.3155 114.592 11.1335" fill="#F4E6D5"/>
</svg>
