<svg width="76" height="32" viewBox="0 0 76 32" fill="none" xmlns="http://www.w3.org/2000/svg">
<path d="M67.22 25.8007C65.4233 27.7317 64.6784 28.9614 66.3216 28.4819C67.9404 28.0003 72.0208 26.2202 74.4267 24.5732C76.8371 22.9263 76.1834 21.7699 73.9731 21.9652C71.7384 22.1649 69.0589 23.8696 67.2222 25.8007M74.4289 7.43788C73.3683 6.681 71.6939 5.79538 70.0662 5.03849C68.4363 4.28383 67.111 3.74447 66.3505 3.53582C65.5523 3.3183 65.261 3.4315 65.4833 3.95089C65.7035 4.46806 65.1965 4.67892 64.3493 4.53465C63.4598 4.38371 62.2102 3.86211 60.9005 3.04529C59.5774 2.2307 58.4256 1.71353 57.6629 1.5737C56.8646 1.42942 56.4021 1.66026 56.3154 2.31948C56.2286 2.97648 55.5749 3.29167 54.7232 3.20511C53.836 3.1141 52.7331 2.61247 51.7303 1.77568C50.7185 0.941111 49.7357 0.466116 48.973 0.395089C48.9685 0.395089 48.9641 0.395089 48.9596 0.395089C48.9552 0.395089 48.9507 0.395089 48.9463 0.395089C48.1502 0.321842 47.5143 0.656999 47.1185 1.41166C46.7271 2.16633 45.9222 2.56808 45.0705 2.537C44.1855 2.50593 43.2316 2.04425 42.5334 1.22965C41.8285 0.415061 41.0235 0 40.2564 0C39.4603 0 38.6532 0.412841 37.9505 1.22965C37.2523 2.04425 36.3006 2.50593 35.4467 2.53478C34.5639 2.56586 33.7568 2.16633 33.3654 1.40945C32.9696 0.652564 32.3337 0.319623 31.5665 0.38843C31.5621 0.38843 31.5554 0.388426 31.5487 0.390645C31.5443 0.390645 31.5376 0.390645 31.5332 0.390645C30.7393 0.461673 29.7587 0.93889 28.7447 1.77346C27.7352 2.61025 26.8547 3.71339 26.4255 4.71221C25.9719 5.74877 25.9497 6.76091 26.4722 7.49559C26.9859 8.2325 27.1304 9.27128 26.9503 10.2834C26.7591 11.3333 26.2321 12.3943 25.3471 13.18C24.4598 13.9657 23.9818 15.0045 23.984 16.0033C23.9818 17.0399 24.4643 18.0787 25.3515 18.8644C26.2365 19.6501 26.7657 20.7111 26.9503 21.7232C27.1393 22.7731 26.997 23.8141 26.4833 24.5488C25.9674 25.2857 25.1469 25.6053 24.2019 25.5387C23.2257 25.4699 22.0694 25.0171 20.9954 24.2203C19.9237 23.4235 19.1276 22.4091 18.823 21.4147C18.5228 20.4581 18.7051 19.4814 19.41 18.7534C20.1082 18.0276 20.4306 17.0155 20.4329 16.0011C20.4329 15.0245 20.1038 14.0123 19.4033 13.2865C18.6984 12.5585 18.5094 11.5819 18.8207 10.5875C19.112 9.63085 19.9081 8.61649 20.9776 7.81965C22.0472 7.02504 22.861 5.98183 23.4081 4.96747C23.9306 3.99307 24.2375 2.97427 24.1596 2.31727C24.0729 1.66026 23.6104 1.4272 22.8433 1.56704C22.0494 1.71131 20.8976 2.22848 19.5768 3.04307C18.2648 3.85989 17.0152 4.37927 16.1613 4.52577C15.2807 4.6767 14.7738 4.46583 14.9939 3.94867C15.2163 3.42928 14.9272 3.31609 14.1556 3.52473C13.364 3.74003 12.0387 4.27939 10.4088 5.03628C8.78112 5.79316 7.10895 6.681 6.04606 7.43567C4.92758 8.22141 4.34945 8.945 4.50732 9.44663C4.65186 9.94604 4.36501 10.7362 3.86692 11.5286C3.34215 12.3521 2.58834 13.2022 1.58549 13.8281C0.573744 14.4563 -0.00661397 15.2464 5.6883e-05 16.0033C-0.00661397 16.7891 0.580417 17.5792 1.59439 18.2074C2.59946 18.8355 3.35994 19.6856 3.8647 20.478C4.38058 21.3015 4.67632 22.0895 4.53401 22.5889C4.38058 23.0905 4.96539 23.8119 6.04384 24.5688C7.14898 25.3545 8.78111 26.2113 10.4066 26.9682C12.0365 27.7228 13.3595 28.2622 14.1512 28.4775C14.9227 28.6861 15.2118 28.5752 14.9894 28.0535C14.7626 27.5342 14.0889 26.6885 13.2172 25.7896C12.37 24.9239 11.2716 23.9739 10.0197 23.2392C8.76333 22.5023 7.74713 21.6012 7.27795 20.7333C6.81766 19.8965 6.88437 19.0531 7.52922 18.4249C8.16517 17.7968 8.43645 16.9 8.43868 16.0011C8.43423 15.1355 8.1585 14.2365 7.52032 13.6106C6.87547 12.9824 6.79987 12.1368 7.27795 11.2689C7.72712 10.4321 8.73664 9.53319 9.99298 8.79406C11.2515 8.05937 12.5168 7.59991 13.493 7.48671C14.4402 7.37795 15.1518 7.61323 15.4853 8.25248C15.8166 8.88951 15.7433 9.83062 15.4053 10.7584C15.0473 11.7217 14.4069 12.7028 13.4641 13.4286C12.5146 14.1566 11.9853 15.0955 11.9898 15.9989C11.9853 16.9356 12.5212 17.8767 13.4707 18.6047C14.4158 19.3305 15.0606 20.3138 15.4053 21.2394C15.7588 22.2027 15.8344 23.1438 15.5076 23.7808C15.1696 24.4201 15.4764 25.3123 16.2325 26.2157C17.0085 27.1524 18.2559 28.1401 19.5745 28.9569C20.8954 29.7715 22.0472 30.2887 22.841 30.433C23.6104 30.5728 24.0729 30.3397 24.1596 29.6827C24.2464 29.0257 24.9223 28.7483 25.8051 28.8393C26.6568 28.9281 27.7397 29.3898 28.7447 30.2265C29.7587 31.0611 30.7371 31.5361 31.5332 31.6094C31.5376 31.6094 31.5443 31.6094 31.5487 31.6094C31.5554 31.6094 31.5598 31.6116 31.5665 31.6116C32.3337 31.6804 32.9696 31.3474 33.3654 30.5906C33.759 29.8337 34.5706 29.4741 35.4534 29.5052C36.305 29.534 37.2501 29.9558 37.9505 30.7703C38.6532 31.5849 39.4626 32 40.2564 32C41.0235 32 41.8307 31.5872 42.5334 30.7703C43.2316 29.9558 44.1789 29.534 45.0639 29.5029C45.9133 29.4741 46.7249 29.8337 47.1185 30.5883C47.5143 31.3452 48.1502 31.6782 48.9463 31.6049C49.7112 31.5361 50.6918 31.0611 51.7036 30.2265C52.7109 29.3898 53.5736 28.3243 54.0206 27.2878C54.4564 26.289 54.4809 25.279 53.9605 24.5421C53.4469 23.8052 53.3046 22.7665 53.4936 21.7144C53.6759 20.7022 54.2074 19.6413 55.0924 18.8555C55.9796 18.0698 56.4621 17.031 56.4577 15.9945C56.4621 14.9956 55.9818 13.9569 55.0946 13.1711C54.2074 12.3854 53.0689 11.9326 52.0305 11.9148C50.9498 11.8948 49.918 12.3121 49.1553 13.0979C48.3904 13.8836 47.2986 14.2787 46.2424 14.2743C45.1439 14.2698 44.0388 13.8681 43.216 13.0624C42.3911 12.2566 41.3037 11.8105 40.2653 11.8105C39.1846 11.8105 38.0995 12.2566 37.2745 13.0624C36.4496 13.8681 36.0204 14.9512 36.0226 15.9945C36.0226 17.0754 36.4496 18.1586 37.2745 18.9643C38.0973 19.77 39.1846 20.1762 40.2631 20.1762C41.3015 20.1762 42.3866 19.77 43.2116 18.9643C44.0365 18.1586 45.1395 17.7546 46.2379 17.7524C47.2919 17.7479 48.3859 18.143 49.1509 18.9288C49.9158 19.7145 50.2138 20.7733 50.0759 21.7987C49.9358 22.8641 49.3577 23.9406 48.4727 24.7574C47.5854 25.572 46.5426 26.0026 45.5998 26.0248C44.6214 26.047 43.6874 25.663 42.987 24.8662C42.2866 24.0716 41.257 23.6343 40.2631 23.6343C39.2291 23.6343 38.1996 24.0716 37.5013 24.8662C36.7987 25.663 35.867 26.047 34.9242 26.0248C33.9458 26.0026 32.9029 25.572 32.0157 24.7574C31.1307 23.9428 30.5525 22.8641 30.4124 21.7987C30.2746 20.771 30.5748 19.7123 31.3375 18.9265C32.098 18.1408 32.476 17.0665 32.476 15.9922C32.476 14.9579 32.0957 13.8836 31.3353 13.0957C30.5703 12.3099 30.2679 11.2512 30.4124 10.1858C30.5459 9.16029 31.124 8.08379 32.009 7.26698C32.8962 6.45238 33.9413 6.02178 34.9197 5.99958C35.8648 5.97739 36.7987 6.36138 37.5013 7.15822C38.2018 7.95283 39.2335 8.35014 40.2653 8.35014C41.2592 8.35014 42.291 7.95283 42.9914 7.15822C43.6941 6.3636 44.628 5.97739 45.6086 5.99958C46.5515 6.02178 47.5943 6.45016 48.4838 7.26475C49.3666 8.07935 50.4717 8.50329 51.5057 8.53659C51.5101 8.53659 51.5168 8.53659 51.5212 8.53659C51.5279 8.53659 51.5324 8.53659 51.539 8.53659C52.533 8.56988 53.4891 8.21697 54.0073 7.48228C54.5254 6.74537 55.3481 6.42353 56.3287 6.49234C57.2715 6.5567 58.4256 7.01172 59.4996 7.80634C60.5714 8.60317 61.363 9.61753 61.6565 10.5742C61.9678 11.5686 61.7788 12.5452 61.0739 13.2732C60.3735 13.999 60.0466 15.0112 60.0444 15.9878C60.0466 17.0022 60.3712 18.0121 61.0695 18.7379C61.7721 19.4637 61.9589 20.4425 61.6565 21.3992C61.3518 22.3936 60.5536 23.4079 59.484 24.2048C58.4145 24.9994 57.5962 26.0426 57.0692 27.0192C56.5266 28.0314 56.2375 29.0124 56.3176 29.6694C56.4043 30.3286 56.8668 30.5595 57.6651 30.4152C58.4278 30.2776 59.5796 29.7604 60.9027 28.9458C62.2191 28.129 63.4665 27.1413 64.2425 26.2046C64.9986 25.3012 65.3054 24.409 64.9697 23.7697C64.6428 23.1327 64.7184 22.1916 65.072 21.2283C65.4166 20.3005 66.0637 19.3194 67.0065 18.5936C67.9582 17.8656 68.4919 16.9267 68.4874 15.9878C68.4919 15.0844 67.9627 14.1433 67.0132 13.4175C66.0704 12.6917 65.4277 11.7106 65.072 10.7473C64.734 9.81952 64.6606 8.87841 64.9919 8.24138C65.3254 7.60214 66.0348 7.36464 67.0198 7.48006C67.9604 7.58882 69.2257 8.04827 70.482 8.78296C71.7295 9.51987 72.9814 9.93272 74.0176 10.037C75.0093 10.1347 75.8209 9.93272 75.9743 9.43331C76.1322 8.93168 75.5541 8.21031 74.4356 7.42235" fill="black"/>
</svg>
