<svg width="127" height="27" viewBox="0 0 127 27" fill="none" xmlns="http://www.w3.org/2000/svg">
<g clip-path="url(#clip0_816_2493)">
<path d="M8.90945 21.7956H13.5726V21.4953C13.1669 21.4953 12.8445 21.3906 12.6083 21.1812C12.3693 20.9718 12.2498 20.5007 12.2498 19.7734V10.8854C12.2498 9.62633 11.908 8.54633 11.2299 7.64541C10.5491 6.74173 9.50972 6.29265 8.11188 6.29265C7.81731 6.29265 7.53663 6.31469 7.26985 6.36153C7.00306 6.40837 6.74462 6.47449 6.49729 6.56816C6.24996 6.65908 6.01374 6.76377 5.7942 6.88224C5.57466 7.00071 5.36068 7.12745 5.16059 7.2652C4.95772 7.40296 4.76875 7.55173 4.59646 7.71704C4.42138 7.87959 4.25186 8.05041 4.08512 8.22398C3.91838 8.39755 3.76276 8.57112 3.61547 8.74469C3.46818 8.91826 3.32923 9.08633 3.2014 9.25163V6.24306L0 8.06694V8.33969C0.6614 8.17439 1.04768 8.24327 1.15884 8.54633C1.27 8.84663 1.3228 9.47204 1.3228 10.4198V19.7734C1.3228 20.5035 1.2172 20.9718 1.006 21.1812C0.794792 21.3906 0.486324 21.4953 0.0833698 21.4953V21.7956H4.71873V21.4953C4.14904 21.4953 3.75442 21.3906 3.5321 21.1812C3.31256 20.9718 3.2014 20.5007 3.2014 19.7734V10.3371C3.31256 10.1911 3.42094 10.0423 3.5321 9.88531C3.64326 9.73102 3.76554 9.57398 3.90449 9.41969C4.04344 9.26541 4.18516 9.10837 4.33245 8.95408C4.47974 8.7998 4.64092 8.65378 4.816 8.51602C4.99107 8.37826 5.16893 8.25704 5.35512 8.14684C5.53853 8.03663 5.73584 7.93745 5.94705 7.84653C6.15825 7.75561 6.38335 7.68673 6.62234 7.6399C6.86134 7.59582 7.10867 7.57102 7.36711 7.57102C8.41479 7.57102 9.18735 7.90439 9.68479 8.56837C10.1822 9.2351 10.4296 10.1415 10.4296 11.2904V19.7679C10.4296 20.498 10.3045 20.9663 10.0572 21.1757C9.80985 21.3851 9.42635 21.4898 8.91223 21.4898V21.7901L8.90945 21.7956ZM25.5084 15.1779C25.5084 15.671 25.475 16.1339 25.4111 16.5719C25.3472 17.01 25.2555 17.4205 25.136 17.8035C25.0165 18.1864 24.8748 18.5336 24.708 18.8421C24.5441 19.1535 24.3579 19.4345 24.155 19.6907C23.9521 19.9469 23.7326 20.1729 23.4936 20.374C23.2546 20.5751 23.0073 20.7404 22.7488 20.8671C22.4904 20.9939 22.2292 21.0903 21.9624 21.1537C21.6956 21.217 21.4233 21.2501 21.1481 21.2501C20.7813 21.2501 20.4367 21.206 20.1144 21.1123C19.792 21.0214 19.4835 20.8947 19.1917 20.7294C18.8972 20.5668 18.622 20.3657 18.3636 20.1288C18.1051 19.8918 17.8661 19.6218 17.6466 19.3215C17.4271 19.0212 17.227 18.6879 17.0547 18.3242C16.8796 17.9605 16.724 17.5776 16.585 17.1753C16.4461 16.7758 16.3321 16.3515 16.2404 15.9024C16.1487 15.4561 16.0793 14.996 16.032 14.5221C15.9848 14.0483 15.9625 13.5551 15.9625 13.0454C15.9625 12.5357 15.9959 12.0921 16.0598 11.6651C16.1237 11.2381 16.221 10.8358 16.3488 10.4611C16.4767 10.0864 16.6239 9.7448 16.7907 9.43622C16.9574 9.12765 17.1436 8.84939 17.3576 8.60143C17.5688 8.35622 17.7939 8.13582 18.0329 7.94571C18.2719 7.75286 18.5248 7.59857 18.7916 7.4801C19.0583 7.36163 19.3307 7.27071 19.6058 7.20735C19.8809 7.14398 20.1588 7.11092 20.4339 7.11092C20.8008 7.11092 21.1454 7.15224 21.4677 7.2349C21.7901 7.31755 22.0986 7.44153 22.3904 7.60408C22.6849 7.76939 22.9573 7.96775 23.2046 8.20469C23.4519 8.44163 23.6826 8.70612 23.8938 8.99816C24.105 9.2902 24.294 9.61255 24.4607 9.96796C24.6247 10.3234 24.7775 10.7008 24.9165 11.1031C25.0554 11.5053 25.1638 11.9241 25.2472 12.3621C25.3305 12.8002 25.3944 13.2548 25.4389 13.7287C25.4834 14.2026 25.5084 14.6847 25.5084 15.1779ZM27.412 15.6435C27.4842 15.1696 27.5232 14.6874 27.5232 14.1943C27.5232 13.7011 27.487 13.1969 27.412 12.7313C27.337 12.2657 27.2369 11.8166 27.1091 11.3786C26.9812 10.9405 26.8145 10.53 26.6116 10.147C26.4088 9.76408 26.1892 9.40316 25.9502 9.06704C25.7112 8.73092 25.4445 8.41959 25.1499 8.13582C24.8553 7.85204 24.5385 7.60133 24.1967 7.38367C23.8577 7.16602 23.5019 6.98418 23.1351 6.83816C22.7683 6.69214 22.3848 6.57918 21.9902 6.49653C21.5956 6.41388 21.1843 6.37255 20.7619 6.37255C20.3395 6.37255 19.9254 6.41388 19.5196 6.49653C19.1139 6.57918 18.7249 6.69214 18.3469 6.83816C17.969 6.98418 17.616 7.17153 17.2853 7.4002C16.9546 7.62888 16.6406 7.87959 16.346 8.15235C16.0515 8.4251 15.7791 8.73092 15.5318 9.06979C15.2845 9.40592 15.0621 9.77235 14.8704 10.1636C14.6786 10.5548 14.5147 10.9653 14.3868 11.3951C14.259 11.8249 14.1562 12.2712 14.0839 12.7341C14.0089 13.1997 13.9728 13.6873 13.9728 14.197C13.9728 14.7067 14.0089 15.1944 14.0839 15.66C14.1562 16.1256 14.2618 16.5747 14.4007 17.0128C14.5397 17.4508 14.7037 17.8613 14.8982 18.2443C15.0927 18.6272 15.3123 18.9882 15.5596 19.3243C15.8069 19.6632 16.0848 19.9662 16.3877 20.2417C16.6906 20.5145 17.0074 20.7624 17.3381 20.9801C17.6688 21.1978 18.019 21.3823 18.3858 21.5284C18.7526 21.6744 19.1361 21.7873 19.5308 21.87C19.9254 21.9527 20.3339 21.994 20.7591 21.994C21.1843 21.994 21.5956 21.9527 22.0013 21.87C22.407 21.7873 22.7961 21.6744 23.174 21.5284C23.552 21.3823 23.9049 21.2005 24.2356 20.9801C24.5663 20.7624 24.8776 20.5117 25.1721 20.228C25.4667 19.9469 25.7335 19.6356 25.9725 19.2967C26.2115 18.9606 26.4282 18.5997 26.62 18.2167C26.8117 17.8338 26.9729 17.4288 27.1035 16.999C27.2314 16.5719 27.3342 16.1201 27.4064 15.6462M36.5382 20.4594C36.666 20.4787 36.8133 20.4952 36.9801 20.5145C37.1468 20.5338 37.3108 20.542 37.4775 20.542H41.7544C42.9688 20.542 43.7414 20.7514 44.0721 21.1702C44.4028 21.589 44.5695 22.0546 44.5695 22.5643C44.5695 22.7819 44.5417 22.9968 44.4861 23.2062C44.4305 23.4156 44.3527 23.625 44.2527 23.8344C44.1527 24.0438 44.0193 24.2449 43.8525 24.435C43.6858 24.6251 43.4996 24.8097 43.2856 24.9805C43.0744 25.1541 42.8354 25.3084 42.5686 25.4461C42.3018 25.5839 42.0073 25.7023 41.6849 25.8015C41.3625 25.9007 41.0179 25.9806 40.6511 26.033C40.2815 26.0881 39.8869 26.1156 39.4645 26.1156C38.0861 26.1156 36.9717 25.8704 36.1269 25.3772C35.2821 24.8841 34.8569 24.1099 34.8569 23.0519C34.8569 22.4871 35.0181 21.9857 35.3405 21.5477C35.6628 21.1096 36.063 20.7459 36.541 20.4539M37.0245 14.0538C36.3909 13.1777 36.0713 12.1114 36.0713 10.8551C36.0713 9.46929 36.3854 8.49398 37.0106 7.92918C37.6359 7.36439 38.3362 7.08061 39.106 7.08061C39.4006 7.08061 39.6729 7.11367 39.9202 7.17704C40.1676 7.24041 40.4038 7.33684 40.6233 7.46357C40.8429 7.59031 41.0457 7.74184 41.2291 7.91541C41.4126 8.08898 41.5821 8.28459 41.7405 8.50224C41.8961 8.72265 42.0295 8.95408 42.1407 9.19929C42.2518 9.44449 42.3435 9.70071 42.4158 9.9652C42.488 10.2297 42.5436 10.508 42.5797 10.8C42.6159 11.092 42.6353 11.3841 42.6353 11.6761C42.6353 12.8966 42.3324 13.8196 41.7238 14.4395C41.118 15.0594 40.3899 15.3707 39.5451 15.3707C38.4974 15.3707 37.6554 14.9327 37.0218 14.0565M36.1797 18.4592C35.9213 18.2415 35.7934 17.977 35.7934 17.6657C35.7934 17.3186 35.9407 16.9824 36.2353 16.6546C36.5299 16.3267 36.9606 16.0347 37.5303 15.7785C37.8054 15.8694 38.0972 15.9438 38.4001 15.9961C38.703 16.0512 39.0115 16.0788 39.3228 16.0788C39.6896 16.0788 40.0397 16.0457 40.3704 15.9823C40.7011 15.919 41.0235 15.8281 41.3348 15.7096C41.6488 15.5911 41.9406 15.4451 42.2185 15.2715C42.4936 15.098 42.752 14.9023 42.991 14.6847C43.23 14.467 43.4412 14.2301 43.6246 13.9739C43.8081 13.7204 43.9637 13.4421 44.0943 13.1391C44.2221 12.8388 44.3249 12.5274 44.3972 12.2079C44.4695 11.8883 44.5084 11.5549 44.5084 11.2105C44.5084 10.373 44.2916 9.60704 43.8609 8.91275C43.4273 8.22122 42.8715 7.68122 42.1907 7.29826H45.6672V6.58745H40.7845C40.5455 6.51582 40.2982 6.46071 40.0397 6.4249C39.7813 6.38908 39.5062 6.3698 39.2116 6.3698C38.8614 6.3698 38.5252 6.40286 38.2056 6.46622C37.8832 6.52959 37.572 6.62051 37.2663 6.73898C36.9634 6.85745 36.6744 7.00898 36.3965 7.19082C36.1214 7.37265 35.8685 7.57378 35.6378 7.79143C35.4072 8.00908 35.2015 8.24878 35.0181 8.50224C34.8347 8.75847 34.6763 9.03673 34.5484 9.33704C34.4206 9.63735 34.3178 9.94867 34.2455 10.2683C34.1705 10.5879 34.1344 10.9212 34.1344 11.2656C34.1344 12.1776 34.3789 13.0068 34.8653 13.7535C35.3516 14.5001 35.9907 15.0759 36.7828 15.4754C36.2297 15.7123 35.6934 16.0733 35.1682 16.5554C34.6429 17.0375 34.3817 17.6079 34.3817 18.2636C34.3817 18.6823 34.4956 19.0653 34.7263 19.4124C34.957 19.7596 35.3016 20.0241 35.7601 20.2059C35.5961 20.2968 35.4211 20.396 35.2349 20.5062C35.0514 20.6164 34.8708 20.7377 34.6985 20.8754C34.5234 21.0132 34.3567 21.1537 34.2011 21.2997C34.0454 21.4457 33.8982 21.6 33.7592 21.7653C33.6203 21.9306 33.5008 22.1014 33.4007 22.286C33.3007 22.4679 33.2201 22.6552 33.1673 22.8453C33.1117 23.0354 33.0839 23.242 33.0839 23.4597C33.0839 23.7159 33.1256 23.9666 33.209 24.2118C33.2923 24.4598 33.4063 24.6857 33.5536 24.8951C33.7009 25.1045 33.8843 25.3001 34.1038 25.4819C34.3233 25.6638 34.5679 25.8291 34.8347 25.9751C35.1015 26.1211 35.396 26.2534 35.7184 26.3718C36.0408 26.4903 36.377 26.5895 36.7244 26.6721C37.0746 26.7548 37.4414 26.8127 37.8277 26.8512C38.2139 26.887 38.6086 26.9063 39.0143 26.9063C39.5479 26.9063 40.0536 26.8705 40.5316 26.7961C41.0096 26.7245 41.4598 26.6225 41.8822 26.4958C42.3046 26.3691 42.6965 26.2093 43.0549 26.0164C43.4134 25.8263 43.7414 25.6142 44.0332 25.3883C44.3277 25.1596 44.589 24.9144 44.8196 24.6499C45.0503 24.3854 45.242 24.1071 45.3976 23.8151C45.5533 23.5231 45.6728 23.2228 45.7561 22.9114C45.8395 22.6001 45.8812 22.2833 45.8812 21.9554C45.8812 21.0077 45.5588 20.2417 44.9169 19.6577C44.2721 19.0736 43.1244 18.7815 41.4681 18.7815H37.522C36.8772 18.7815 36.427 18.6713 36.1714 18.4537M56.244 22.0078L59.4455 20.6963V20.396C58.784 20.542 58.3978 20.4869 58.2866 20.2335C58.1755 19.9772 58.1227 19.4317 58.1227 18.5914V6.2348L54.924 8.01184V8.31214C55.5854 8.13031 55.9717 8.20194 56.0829 8.5298C56.194 8.85765 56.2468 9.48582 56.2468 10.417V18.349C55.8411 18.9138 55.3047 19.4758 54.6322 20.0296C53.9597 20.5861 53.1566 20.8644 52.2173 20.8644C51.2252 20.8644 50.4888 20.5283 50.0108 19.8533C49.5328 19.1783 49.2938 18.2581 49.2938 17.0899V6.2348L46.0952 8.01184V8.31214C46.7566 8.13031 47.1428 8.20194 47.254 8.5298C47.3652 8.85765 47.4207 9.48582 47.4207 10.417V17.528C47.4207 18.8036 47.7598 19.8891 48.4406 20.7817C49.1215 21.6744 50.1608 22.1207 51.5587 22.1207C52.6063 22.1207 53.5206 21.8369 54.3043 21.2721C55.0852 20.7073 55.7327 20.0957 56.2496 19.44V22.0105L56.244 22.0078ZM63.2555 3.78C63.4944 3.51551 63.6139 3.20969 63.6139 2.86531C63.6139 2.48235 63.4944 2.16276 63.2555 1.90929C63.0165 1.65306 62.6941 1.52633 62.2911 1.52633C61.8882 1.52633 61.5881 1.65306 61.3407 1.90929C61.0934 2.16551 60.9683 2.48235 60.9683 2.86531C60.9683 3.21245 61.0934 3.51827 61.3407 3.78C61.5881 4.04449 61.9076 4.17673 62.2911 4.17673C62.6746 4.17673 63.0165 4.04449 63.2555 3.78ZM60.2486 21.7901H64.745V21.4898C64.267 21.4898 63.9169 21.3851 63.6973 21.1757C63.4778 20.9663 63.3666 20.4952 63.3666 19.7679V6.15214L60.1958 8.03939V8.33969C60.8572 8.17439 61.2435 8.235 61.3546 8.51877C61.4658 8.80255 61.5186 9.41694 61.5186 10.3647V19.7734C61.5186 20.5035 61.4074 20.9718 61.1879 21.1812C60.9683 21.3906 60.6543 21.4953 60.2486 21.4953V21.7956V21.7901ZM65.6787 21.7901H70.1751V21.4898C69.7138 21.4898 69.3803 21.3851 69.1692 21.1757C68.9579 20.9663 68.8523 20.4952 68.8523 19.7679V0L65.5426 1.83214V2.13245C66.2595 1.98643 66.682 2.02224 66.8126 2.24265C66.9404 2.46031 67.0043 2.90939 67.0043 3.58163V19.7706C67.0043 20.5007 66.8904 20.9691 66.6597 21.1785C66.4291 21.3879 66.1039 21.4925 65.6815 21.4925V21.7929L65.6787 21.7901ZM77.4172 20.8203C77.9424 19.9717 78.2481 18.9661 78.3426 17.798L77.9285 17.7429C77.7646 18.8559 77.4783 19.6714 77.0726 20.1894C76.6669 20.7101 76.1611 20.9691 75.5553 20.9691C74.9495 20.9691 74.4881 20.768 74.1769 20.3685C73.8629 19.9662 73.7073 19.3105 73.7073 18.3986V7.46633H77.8174V6.5902H73.7073V2.81571H73.2376C73.0542 3.76347 72.7735 4.65612 72.3956 5.49643C72.0176 6.33398 71.3784 6.86296 70.4781 7.08337V7.46633H71.8564V18.6796C71.8564 19.8836 72.151 20.7542 72.7402 21.2914C73.3293 21.8287 74.063 22.0987 74.9467 22.0987C76.0694 22.0987 76.892 21.6744 77.4144 20.8258M90.9592 20.8258C91.4845 19.9772 91.7902 18.9716 91.8846 17.8035L91.4706 17.7484C91.3066 18.8614 91.0204 19.6769 90.6146 20.1949C90.2089 20.7156 89.7031 20.9746 89.0973 20.9746C88.4915 20.9746 88.0302 20.7735 87.7189 20.374C87.4049 19.9717 87.2493 19.316 87.2493 18.4041V7.46633H91.3594V6.5902H87.2493V2.81571H86.7796C86.5962 3.76347 86.3155 4.65612 85.9376 5.49643C85.5597 6.33398 84.9205 6.86296 84.0201 7.08337V7.46633H85.3985V18.6796C85.3985 19.8836 85.693 20.7542 86.2822 21.2914C86.8713 21.8287 87.605 22.0987 88.4887 22.0987C89.6114 22.0987 90.434 21.6744 90.9565 20.8258M100.636 8.27357C100.811 8.06418 100.897 7.81347 100.897 7.52143C100.897 7.2101 100.783 6.92908 100.552 6.67286C100.322 6.41663 99.9409 6.2899 99.4074 6.2899C98.6154 6.2899 97.8623 6.64531 97.1453 7.35612C96.4283 8.06694 95.8197 8.86867 95.325 9.76408V6.2348L92.1264 8.06694V8.33969C92.7878 8.17439 93.1741 8.24327 93.2853 8.54633C93.3964 8.84663 93.452 9.47204 93.452 10.4198V19.7734C93.452 20.5035 93.3464 20.9718 93.1352 21.1812C92.924 21.3906 92.6155 21.4953 92.2126 21.4953V21.7956H97.1508V21.4953C96.4505 21.4953 95.9725 21.3906 95.7169 21.1812C95.4584 20.9718 95.3306 20.5007 95.3306 19.7734V10.9405C95.8086 10.0837 96.2866 9.39214 96.7646 8.86316C97.2425 8.33418 97.7205 8.06969 98.1985 8.06969C98.5487 8.06969 98.8294 8.1551 99.0406 8.32867C99.2518 8.50224 99.5408 8.58765 99.9104 8.58765C100.224 8.58765 100.466 8.48296 100.641 8.27357M104.632 3.78827C104.871 3.52378 104.99 3.21796 104.99 2.87357C104.99 2.49061 104.871 2.17102 104.632 1.91755C104.393 1.66133 104.071 1.53459 103.668 1.53459C103.265 1.53459 102.964 1.66133 102.717 1.91755C102.47 2.17378 102.345 2.49061 102.345 2.87357C102.345 3.22071 102.47 3.52653 102.717 3.78827C102.964 4.05275 103.284 4.185 103.668 4.185C104.051 4.185 104.393 4.05275 104.632 3.78827ZM101.625 21.7984H106.121V21.4981C105.643 21.4981 105.293 21.3934 105.074 21.184C104.854 20.9746 104.743 20.5035 104.743 19.7761V6.15214L101.569 8.03939V8.33969C102.231 8.17439 102.617 8.235 102.728 8.51877C102.839 8.80255 102.892 9.41694 102.892 10.3647V19.7734C102.892 20.5035 102.781 20.9718 102.562 21.1812C102.342 21.3906 102.028 21.4953 101.622 21.4953V21.7956L101.625 21.7984ZM118.627 15.0153C118.627 17.021 118.185 18.5473 117.304 19.597C116.42 20.6467 115.325 21.1702 114.022 21.1702C113.728 21.1702 113.444 21.1482 113.166 21.1013C112.891 21.0572 112.624 20.9829 112.366 20.8837C112.107 20.7845 111.866 20.666 111.635 20.5283C111.404 20.3905 111.193 20.2362 111.001 20.0627C110.81 19.8891 110.629 19.7017 110.462 19.5006C110.298 19.2995 110.159 19.0818 110.048 18.8449C109.937 18.608 109.851 18.3572 109.787 18.0928C109.723 17.8283 109.69 17.5583 109.69 17.2855V10.2848C110.279 9.50235 110.89 8.85765 111.524 8.35622C112.157 7.8548 112.999 7.60408 114.047 7.60408C114.433 7.60408 114.792 7.65092 115.123 7.74184C115.453 7.83276 115.762 7.97051 116.048 8.15235C116.331 8.33418 116.595 8.55735 116.834 8.82184C117.073 9.08633 117.29 9.38112 117.482 9.71173C117.674 10.0396 117.846 10.4005 117.993 10.7917C118.141 11.183 118.26 11.6017 118.352 12.0508C118.443 12.4971 118.513 12.971 118.557 13.4724C118.602 13.9739 118.627 14.4891 118.627 15.0181M120.475 13.5413C120.475 12.9572 120.439 12.4062 120.364 11.8855C120.289 11.3648 120.18 10.8827 120.033 10.4363C119.886 9.99 119.711 9.57398 119.508 9.19102C119.305 8.80806 119.074 8.46643 118.819 8.16612C118.56 7.86582 118.28 7.59582 117.977 7.35888C117.674 7.12194 117.351 6.92633 117.012 6.77204C116.673 6.61775 116.312 6.49929 115.937 6.41663C115.559 6.33398 115.17 6.29265 114.764 6.29265C113.661 6.29265 112.677 6.5902 111.813 7.18255C110.949 7.7749 110.24 8.42786 109.69 9.13867V6.24031L106.516 8.07245V8.3452C107.197 8.1799 107.592 8.24878 107.703 8.55184C107.814 8.85214 107.867 9.47755 107.867 10.4253V25.1375C107.867 25.8484 107.753 26.3085 107.522 26.5179C107.291 26.7272 106.983 26.8319 106.599 26.8319V27.1322H111.621V26.8319C110.885 26.8319 110.379 26.7272 110.104 26.5179C109.829 26.3085 109.69 25.8484 109.69 25.1375V20.4869C110.148 20.925 110.707 21.2859 111.36 21.5669C112.013 21.848 112.799 21.9912 113.719 21.9912C114.086 21.9912 114.458 21.9554 114.836 21.881C115.214 21.8066 115.581 21.6992 115.94 21.5532C116.298 21.4071 116.643 21.2253 116.973 21.0077C117.304 20.79 117.621 20.5393 117.924 20.2555C118.227 19.9717 118.507 19.6549 118.766 19.2995C119.024 18.9441 119.258 18.5556 119.469 18.1368C119.68 17.7181 119.858 17.2662 120.008 16.7841C120.155 16.3019 120.269 15.7895 120.353 15.2522C120.436 14.715 120.478 14.1447 120.478 13.5441M123.776 3.07469H123.273V2.17102H123.768C124.143 2.17102 124.329 2.33908 124.329 2.59255C124.329 2.87908 124.124 3.07469 123.776 3.07469ZM124.407 4.68367H125.01V4.65061C124.874 4.4302 124.857 4.23735 124.771 3.96735C124.668 3.64775 124.585 3.43561 124.321 3.34469C124.66 3.25929 124.916 2.95622 124.916 2.53469C124.916 2.02776 124.507 1.6751 123.812 1.6751H122.681V4.68367H123.276V3.55408H123.643C123.974 3.55408 124.085 3.73867 124.179 4.00041C124.274 4.25388 124.274 4.52388 124.41 4.68367M126.364 3.20143C126.364 4.74429 125.191 5.89041 123.754 5.89041C122.317 5.89041 121.128 4.74429 121.128 3.20143C121.128 1.65857 122.292 0.54551 123.754 0.54551C125.216 0.54551 126.364 1.70816 126.364 3.20143ZM127.008 3.20143C127.008 1.38857 125.522 0.00826531 123.754 0.00826531C121.987 0.00826531 120.48 1.38306 120.48 3.20143C120.48 5.0198 121.976 6.42765 123.754 6.42765C125.533 6.42765 127.008 5.04459 127.008 3.20143Z" fill="#0D1321"/>
</g>
<defs>
<clipPath id="clip0_816_2493">
<rect width="127" height="27" fill="white"/>
</clipPath>
</defs>
</svg>
